<?xml version="1.0" encoding="UTF-8" standalone="no"?>
<!DOCTYPE svg PUBLIC "-//W3C//DTD SVG 1.1//EN"
 "http://www.w3.org/Graphics/SVG/1.1/DTD/svg11.dtd">
<!-- Generated by graphviz version 2.38.0 (20140413.2041)
 -->
<!-- Title: ODC Pages: 1 -->
<svg width="466pt" height="116pt"
 viewBox="0.00 0.00 466.44 116.00" xmlns="http://www.w3.org/2000/svg" xmlns:xlink="http://www.w3.org/1999/xlink">
<g id="graph0" class="graph" transform="scale(1 1) rotate(0) translate(4 112)">
<title>ODC</title>
<polygon fill="white" stroke="none" points="-4,4 -4,-112 462.437,-112 462.437,4 -4,4"/>
<!-- datacube -->
<g id="node1" class="node"><title>datacube</title>
<ellipse fill="none" stroke="black" cx="152.047" cy="-90" rx="42.4939" ry="18"/>
<text text-anchor="middle" x="152.047" y="-86.3" font-family="Times,serif" font-size="14.00">datacube</text>
</g>
<!-- indexer -->
<g id="node2" class="node"><title>indexer</title>
<ellipse fill="none" stroke="black" cx="37.0467" cy="-18" rx="37.0935" ry="18"/>
<text text-anchor="middle" x="37.0467" y="-14.3" font-family="Times,serif" font-size="14.00">indexer</text>
</g>
<!-- datacube&#45;&gt;indexer -->
<g id="edge1" class="edge"><title>datacube&#45;&gt;indexer</title>
<path fill="none" stroke="black" d="M128.775,-74.8345C111.324,-64.2122 87.26,-49.5646 68.1578,-37.9372"/>
<polygon fill="black" stroke="black" points="69.8633,-34.8779 59.5014,-32.6681 66.2236,-40.8573 69.8633,-34.8779"/>
</g>
<!-- xarrayBuilder -->
<g id="node3" class="node"><title>xarrayBuilder</title>
<ellipse fill="none" stroke="black" cx="152.047" cy="-18" rx="59.5901" ry="18"/>
<text text-anchor="middle" x="152.047" y="-14.3" font-family="Times,serif" font-size="14.00">xarrayBuilder</text>
</g>
<!-- datacube&#45;&gt;xarrayBuilder -->
<g id="edge2" class="edge"><title>datacube&#45;&gt;xarrayBuilder</title>
<path fill="none" stroke="black" d="M152.047,-71.6966C152.047,-63.9827 152.047,-54.7125 152.047,-46.1124"/>
<polygon fill="black" stroke="black" points="155.547,-46.1043 152.047,-36.1043 148.547,-46.1044 155.547,-46.1043"/>
</g>
<!-- scienceApplicationCollection -->
<g id="node4" class="node"><title>scienceApplicationCollection</title>
<ellipse fill="none" stroke="black" cx="344.047" cy="-18" rx="114.28" ry="18"/>
<text text-anchor="middle" x="344.047" y="-14.3" font-family="Times,serif" font-size="14.00">scienceApplicationCollection</text>
</g>
<!-- datacube&#45;&gt;scienceApplicationCollection -->
<g id="edge3" class="edge"><title>datacube&#45;&gt;scienceApplicationCollection</title>
<path fill="none" stroke="black" d="M183.322,-77.5975C212.558,-66.9386 256.785,-50.8143 291.449,-38.1764"/>
<polygon fill="black" stroke="black" points="292.755,-41.4254 300.952,-34.7118 290.358,-34.8488 292.755,-41.4254"/>
</g>
</g>
</svg>
